<?xml version="1.0" standalone="no"?><!DOCTYPE svg PUBLIC "-//W3C//DTD SVG 1.1//EN" "http://www.w3.org/Graphics/SVG/1.1/DTD/svg11.dtd"><svg t="1575276143621" class="icon" viewBox="0 0 1024 1024" version="1.1" xmlns="http://www.w3.org/2000/svg" p-id="2581" xmlns:xlink="http://www.w3.org/1999/xlink" width="200" height="200"><defs><style type="text/css"></style></defs><path d="M511.3 64c-247 0-448 201-448 448s201 448 448 448 448-201 448-448-200.9-448-448-448z m223.8 772.1c-8.9-6.2-20.9-7.2-30.9-1.4-10.3 5.9-15.5 17.2-14.2 28.3-45.5 23.3-96 37.9-149.6 41.9-4-11.1-14.5-19-27-19-12.6 0-23.1 8.1-27.1 19.3-49.2-3.1-95.9-15.2-138.5-34.7 3.3-12.3-1.7-25.8-13.3-32.4-12-6.9-26.8-4.2-35.7 5.6-42.2-27.1-78.9-62-108-102.7 11.1-8.7 14.5-24.4 7.3-37-7.5-13-23.6-17.8-37-11.6-23.2-44.8-38-94.7-42.4-147.4 15.6-0.3 28.2-13 28.2-28.7 0-15.9-12.9-28.8-28.8-28.8h-0.1c3.1-50.9 16-99.2 36.7-143.1 0.3 0.2 0.5 0.4 0.7 0.5 13.8 7.9 31.4 3.2 39.3-10.5 7.9-13.8 3.2-31.4-10.5-39.3-0.4-0.3-0.9-0.4-1.3-0.6 28.2-42.4 64.3-79.1 106.3-107.8 0.1 0.2 0.2 0.5 0.3 0.7 7.9 13.8 25.6 18.5 39.3 10.5 13.8-7.9 18.5-25.6 10.5-39.3-0.2-0.3-0.4-0.5-0.6-0.8 44.6-21.8 94-35.4 146.1-38.9 0.5 15.4 13.1 27.8 28.7 27.8 15.4 0 27.9-12.2 28.6-27.5 51.4 4 100 17.9 144 39.7-5.2 13.1-0.3 28.3 12.2 35.5 12.4 7.1 27.8 4 36.6-6.7 41.2 28.5 76.7 64.6 104.4 106.3-8.9 9-11.1 23-4.5 34.5 6.6 11.4 19.7 16.4 31.8 13.4 21.7 45.1 34.9 94.9 37.9 147.5-10.8 4.1-18.6 14.5-18.6 26.8 0 12 7.4 22.3 17.9 26.6-3.9 50.2-17.2 97.8-38.2 141-10.8-1-21.7 4.2-27.5 14.2-5.8 10.1-4.8 22.2 1.6 31.1-27.6 42.1-63.2 78.4-104.6 107z" fill="#4D4D4D" p-id="2582"></path><path d="M728.2 605.4l-189.9-109V251.3c0-14.9-12.1-27-27-27s-27 12.1-27 27V512c0 0.3 0.1 0.6 0.1 0.9 0 1 0.2 1.9 0.3 2.9 0.1 0.8 0.2 1.6 0.4 2.5 0.2 0.9 0.5 1.7 0.8 2.5 0.3 0.8 0.6 1.7 0.9 2.4 0.4 0.8 0.8 1.5 1.2 2.3 0.4 0.7 0.8 1.5 1.3 2.2 0.5 0.7 1.1 1.4 1.7 2 0.6 0.7 1.1 1.3 1.8 1.9 0.6 0.6 1.3 1.1 1.9 1.6 0.8 0.6 1.5 1.2 2.3 1.7 0.3 0.2 0.5 0.4 0.7 0.5l203.4 116.7c4.2 2.5 8.9 3.6 13.5 3.6 9.3 0 18.4-4.8 23.4-13.5 7.5-12.9 3.1-29.4-9.8-36.8z" fill="#4D4D4D" p-id="2583"></path></svg>